<svg xmlns="http://www.w3.org/2000/svg" viewBox="0 0 512 512"><title>Artboard 136</title><g id="Jacket"><rect x="149.33333" y="405.33333" width="213.33333" height="64" style="fill:#724327"/><rect x="256" y="405.33333" width="106.66667" height="64" style="fill:#673315"/><rect x="170.66667" y="405.33333" width="21.33333" height="64" style="fill:#673315"/><rect x="213.33333" y="405.33333" width="21.33333" height="64" style="fill:#673315"/><rect x="256" y="405.33333" width="21.33333" height="64" style="fill:#592900"/><rect x="298.66667" y="405.33333" width="21.33333" height="64" style="fill:#592900"/><rect x="341.33333" y="405.33333" width="21.33333" height="64" style="fill:#592900"/><rect x="256" y="405.33333" width="106.66667" height="42.66667" style="fill:#592900"/><rect x="149.33333" y="405.33333" width="106.66667" height="42.66667" transform="translate(405.33333 853.33333) rotate(180)" style="fill:#673315"/><path d="M128,64h-.00006C42.66667,64,21.33333,213.33333,21.33333,298.66667c0,27.84855,0,106.66666,21.33334,192H128Z" style="fill:#89614a"/><path d="M106.66667,426.66667A42.71555,42.71555,0,0,1,64,384V213.33333h42.66667Z" style="fill:#7b4f35"/><path d="M384,64h.00006c85.33327,0,106.66661,149.33333,106.66661,234.66667,0,27.84855,0,106.66666-21.33334,192H384Z" style="fill:#89614a"/><path d="M362.66667,426.66667A42.66666,42.66666,0,0,0,405.33333,384V86.29364A22.29364,22.29364,0,0,0,383.03969,64h-20.373a21.33334,21.33334,0,0,1-21.33334-21.33333H170.66667A21.33334,21.33334,0,0,1,149.33333,64h-20.373a22.29364,22.29364,0,0,0-22.29364,22.29364V384a42.66666,42.66666,0,0,0,42.66666,42.66667Z" style="fill:#89614a"/><rect x="106.66667" y="85.33333" width="21.33333" height="106.66667" style="fill:#9c7a67"/><path d="M362.66667,426.66667H277.33333V384h85.33334V234.66667h42.66666V384A42.71555,42.71555,0,0,1,362.66667,426.66667Z" style="fill:#7b4f35"/><path d="M405.33333,426.66667V213.33333H448V384A42.71555,42.71555,0,0,1,405.33333,426.66667Z" style="fill:#724327"/><path d="M405.33333,234.66667A42.70886,42.70886,0,0,1,362.66667,192V64H384V192a21.36112,21.36112,0,0,0,21.33333,21.33333Z" style="fill:#724327"/><path d="M106.66667,234.66667V213.33333A21.36112,21.36112,0,0,0,128,192V64h21.33333V192A42.70886,42.70886,0,0,1,106.66667,234.66667Z" style="fill:#7b4f35"/><path d="M256,149.33333a106.3887,106.3887,0,0,1-94.83333-57.86458L180.125,81.67708a85.31423,85.31423,0,0,0,152.3125-1.08333l19.08333,9.51042A106.14217,106.14217,0,0,1,256,149.33333Z" style="fill:#7b4f35"/><path d="M256,128a85.42441,85.42441,0,0,1-85.33333-85.33333H341.33333A85.42441,85.42441,0,0,1,256,128Z" style="fill:#9c7a67"/><path d="M256,106.66667a63.99984,63.99984,0,0,0,64-64H192A63.99984,63.99984,0,0,0,256,106.66667Z" style="fill:#673315"/><rect x="256" y="128" width="21.33333" height="298.66667" style="fill:#724327"/><path d="M256,149.33333V128a84.95357,84.95357,0,0,0,76.4375-47.40625l19.08333,9.51042A106.14217,106.14217,0,0,1,256,149.33333Z" style="fill:#724327"/><path d="M405.33333,256a64.07,64.07,0,0,1-64-64V106.66667h21.33334V192a42.71555,42.71555,0,0,0,42.66666,42.66667Z" style="fill:#9c7a67"/><path d="M256,234.66667V213.33333A21.35442,21.35442,0,0,0,277.33333,192h21.33334A42.71556,42.71556,0,0,1,256,234.66667Z" style="fill:#673315"/><circle cx="256" cy="192" r="21.33333" style="fill:#9c7a67"/><path d="M256,320V298.66667a21.35443,21.35443,0,0,0,21.33333-21.33334h21.33334A42.71556,42.71556,0,0,1,256,320Z" style="fill:#673315"/><circle cx="256" cy="277.33333" r="21.33333" style="fill:#9c7a67"/><path d="M256,405.33333V384a21.35443,21.35443,0,0,0,21.33333-21.33333h21.33334A42.71555,42.71555,0,0,1,256,405.33333Z" style="fill:#673315"/><circle cx="256" cy="362.66667" r="21.33333" style="fill:#9c7a67"/><circle cx="245.33333" cy="352" r="10.66667" style="fill:#d4c6be"/><circle cx="245.33333" cy="266.66667" r="10.66667" style="fill:#d4c6be"/><circle cx="245.33333" cy="181.33333" r="10.66667" style="fill:#d4c6be"/><path d="M106.66667,341.33333V320a42.71555,42.71555,0,0,0,42.66666-42.66667h21.33334A64.07,64.07,0,0,1,106.66667,341.33333Z" style="fill:#9c7a67"/><path d="M106.66667,362.66667V341.33333a64.07,64.07,0,0,0,64-64H192A85.42441,85.42441,0,0,1,106.66667,362.66667Z" style="fill:#7b4f35"/><path d="M405.33333,341.33333a64.07,64.07,0,0,1-64-64h21.33334A42.71555,42.71555,0,0,0,405.33333,320Z" style="fill:#9c7a67"/><path d="M405.33333,362.66667A85.42441,85.42441,0,0,1,320,277.33333h21.33333a64.07,64.07,0,0,0,64,64Z" style="fill:#724327"/><rect x="384" y="448" width="21.33333" height="42.66667" style="fill:#673315"/><rect x="21.33333" y="448" width="106.66667" height="42.66667" style="fill:#7b4f35"/><rect x="85.33333" y="448" width="42.66667" height="42.66667" style="fill:#724327"/><rect x="384" y="448" width="106.66667" height="42.66667" style="fill:#724327"/><rect x="384" y="448" width="42.66667" height="42.66667" style="fill:#673315"/><rect x="149.33333" y="384" width="85.33333" height="21.33333" style="fill:#9c7a67"/></g></svg>