<?xml version="1.0" encoding="UTF-8"?>
<!DOCTYPE svg PUBLIC "-//W3C//DTD SVG 1.1//EN" "http://www.w3.org/Graphics/SVG/1.1/DTD/svg11.dtd">
<!-- Creator: CorelDRAW -->
<svg xmlns="http://www.w3.org/2000/svg" xml:space="preserve" width="2048px" height="2048px" style="shape-rendering:geometricPrecision; text-rendering:geometricPrecision; image-rendering:optimizeQuality; fill-rule:evenodd; clip-rule:evenodd"
viewBox="0 0 2048 2048"
 xmlns:xlink="http://www.w3.org/1999/xlink">
 <defs>
  <style type="text/css">
   <![CDATA[
    .fil2 {fill:none}
    .fil0 {fill:#212121;fill-rule:nonzero}
    .fil1 {fill:#66BB6A;fill-rule:nonzero}
   ]]>
  </style>
 </defs>
 <g id="Layer_x0020_1">
  <metadata id="CorelCorpID_0Corel-Layer"/>
  <path class="fil0" d="M864.106 1099.94c-54.0367,-51.0319 -102.263,-112.511 -143.784,-186.046 -42.3426,-74.9918 -77.5867,-162.395 -104.758,-263.905 -32.2914,92.7154 -69.9815,173.424 -111.597,245.397 -44.5311,77.0162 -93.4406,143.834 -144.965,204.554l78.9875 0 22.3784 0 7.62166 21.2504 217.656 606.812 3.3874 0 156.52 0 182.286 0 224.47 0 367.366 0 0 -273.803 0 -32.7012 32.7508 0.825591 44.2878 1.11496 -61.3111 -85.4056 -279.481 0 -40.0276 0 8.90198 -39.0012 109.21 -478.497 5.70591 -25.0004 25.4197 0 62.8512 0c-44.237,-52.6973 -86.256,-110.59 -124.641,-176.977 -36.6166,-63.3284 -69.828,-134.216 -98.3765,-215.454 -31.826,91.0902 -78.8304,169.28 -132.053,236.151 -48.7489,61.2497 -102.735,112.935 -154.931,156.28l40.3937 0 32.0008 0 0 32.0008c0,162.669 -54.0839,319.66 -108.164,476.647l-4.21063 12.2244 -7.44804 21.626 -22.8024 0 -119.319 0 -22.5154 0 -7.60985 -21.2504c-8.42717,-23.5358 -15.3614,-50.3221 -20.2477,-81.5398 -4.80827,-30.7276 -7.49882,-64.8603 -7.49882,-103.302l0 -32.0008 32.0008 0 61.5461 0zm-88.2839 -217.296c53.7296,95.1591 119.655,168.252 195.477,223.421l-18.75 25.8756 0 32.0008 -117.336 0c0.962599,22.761 2.96457,43.1552 5.8441,61.5497 2.74134,17.5099 6.34134,33.6048 10.6453,48.5398l73.2449 0c47.5583,-138.117 94.2213,-276.24 100.662,-414.495l-100.847 0 -98.1166 0 79.3666 -57.7512c68.7355,-50.015 148.397,-116.216 216.898,-202.282 67.6914,-85.0501 124.433,-189.654 148.466,-317.377l25.7894 -137.05 36.4607 134.675c33.0638,122.132 75.8316,221.83 124.964,306.806 49.1327,84.9757 104.832,155.584 163.651,219.353l49.4622 53.6256 -72.9627 0 -108.191 0 -94.6016 414.495 255.727 0 16.2732 0 9.60237 13.376 108.325 150.895 37.4103 52.1126 -64.0359 -1.61221 -75.5741 -1.90394 0 273.104 0 32.0008 -32.0008 0 -399.366 0 -224.47 0 -182.286 0 -156.52 0 -25.7646 0 -22.3772 0 -7.62284 -21.2504 -217.656 -606.812 -127.613 0 -72.9638 0 49.4634 -53.6256c66.202,-71.7709 128.897,-151.252 184.219,-246.931 55.3205,-95.6776 103.471,-207.911 140.682,-345.365l36.4607 -134.674 25.7894 137.049c27.5705,146.516 69.7323,265.832 124.172,362.249z"/>
  <path class="fil1" d="M1246.88 758.155c4.6252,-16.9819 22.1433,-27 39.1252,-22.3748 16.9819,4.6252 27,22.1433 22.3748,39.1252l-147.18 539.5c-4.6252,16.9819 -22.1433,27 -39.1252,22.3748 -16.9819,-4.6252 -27,-22.1433 -22.3748,-39.1252l147.18 -539.5z"/>
  <path class="fil1" d="M1125.7 918.605c-17.465,-2.62323 -29.4981,-18.9106 -26.8748,-36.3756 2.62323,-17.465 18.9106,-29.4981 36.3756,-26.8748l227.482 35.0563c17.465,2.62323 29.4981,18.9106 26.8748,36.3756 -2.62323,17.465 -18.9106,29.4981 -36.3756,26.8748l-227.482 -35.0563z"/>
  <path class="fil1" d="M625.973 959.742c26.8524,0 51.0024,11.8795 68.3398,31.0819 16.5095,18.2823 26.7213,43.3181 26.7213,70.7611 0,27.4441 -10.2118,52.4764 -26.7213,70.7611 -17.3386,19.2012 -41.4898,31.0807 -68.3398,31.0807 -26.8512,0 -51.0012,-11.8795 -68.3398,-31.0807 -16.5095,-18.2847 -26.7213,-43.317 -26.7213,-70.7611 0,-27.4429 10.2118,-52.4788 26.7213,-70.7611 17.3374,-19.2024 41.4874,-31.0819 68.3398,-31.0819zm20.8406 73.8331c-5.48268,-6.07323 -12.8646,-9.8315 -20.8406,-9.8315 -7.97599,0 -15.3567,3.75827 -20.8406,9.8315 -6.313,6.99095 -10.2189,16.8815 -10.2189,28.0099 0,11.1272 3.90591,21.0189 10.2189,28.0099 5.48386,6.07205 12.8646,9.83032 20.8406,9.83032 7.97599,0 15.3567,-3.75827 20.8406,-9.83032 6.313,-6.99095 10.2189,-16.8827 10.2189,-28.0099 0,-11.1284 -3.90591,-21.0189 -10.2189,-28.0099z"/>
  <path class="fil0" d="M1083.15 1378.79l0.00236221 0c73.8615,0 140.989,30.1949 189.634,78.8386 48.6437,48.6437 78.8386,115.773 78.8386,189.634l0 112.736 0 32.0008 -32.0008 0 -472.947 0 -32.0008 0 0 -32.0008 0 -112.736c0,-73.8615 30.1949,-140.991 78.8386,-189.634 48.6449,-48.6437 115.773,-78.8386 189.634,-78.8386zm0.00236221 64.0016l-0.00236221 0c-56.1969,0 -107.308,23.0126 -144.384,60.0874 -37.0737,37.0737 -60.0874,88.1871 -60.0874,144.384l0 80.7355 408.945 0 0 -80.7355c0,-56.1969 -23.0138,-107.31 -60.0874,-144.384 -37.076,-37.0748 -88.1871,-60.0874 -144.384,-60.0874z"/>
  <path class="fil0" d="M796.404 521.664c-16.5685,5.93623 -34.8142,-2.6811 -40.7504,-19.2496 -5.93623,-16.5685 2.6811,-34.8142 19.2496,-40.7504 21.3449,-7.70552 56.0268,-12.8197 91.6642,-7.72914 15.2374,2.17677 30.8374,6.17599 45.9555,12.5587 8.01497,-14.0315 17.8382,-26.465 28.4894,-37.2697 25.2709,-25.6335 55.93,-42.3496 77.4733,-49.2768 16.7752,-5.38465 34.741,3.8504 40.1256,20.6256 5.38465,16.7752 -3.8504,34.741 -20.6256,40.1256 -13.9181,4.4752 -34.1268,15.6803 -51.4725,33.2752 -12.2847,12.4618 -22.7587,27.9992 -27.6366,46.2756l-0.0259843 -0.00708662c-1.04646,3.92008 -2.85945,7.7067 -5.47441,11.1319 -10.6996,14.0138 -30.7359,16.6996 -44.7496,6 -15.1453,-11.5689 -33.3059,-17.6528 -51.0591,-20.1886 -24.7323,-3.53268 -47.6162,-0.412205 -61.1634,4.47874z"/>
  <path class="fil0" d="M554.751 322.57c16.5685,5.93623 25.1858,24.1819 19.2496,40.7504 -5.93623,16.5685 -24.1819,25.1858 -40.7504,19.2496 -16.813,-6.06969 -45.0886,-9.96024 -75.4701,-5.62087 -21.9803,3.13937 -44.5158,10.7102 -63.404,25.1386 -14.0138,10.6996 -34.05,8.01379 -44.7496,-6 -2.61496,-3.4252 -4.42796,-7.21182 -5.47441,-11.1319l-0.0259843 0.00708662c-6.08741,-22.8012 -19.0925,-42.124 -34.3335,-57.5847 -21.3343,-21.6414 -46.3052,-35.4603 -63.5434,-41.0032 -16.7752,-5.38465 -26.0103,-23.3504 -20.6256,-40.1256 5.38465,-16.7752 23.3504,-26.0103 40.1256,-20.6256 24.8634,7.99489 60.2847,27.3248 89.5442,57.0048 13.4811,13.6748 25.8095,29.5996 35.4874,47.7248 18.965,-8.63386 38.726,-13.9016 57.9993,-16.6547 41.2866,-5.89725 81.3579,-0.0141732 105.971,8.87127z"/>
  <rect class="fil2" width="2048" height="2048"/>
 </g>
</svg>
